<svg width="201" height="23" fill="none" xmlns="http://www.w3.org/2000/svg"><path d="M18.49 4.96h-6.72V22h-4.8V4.96H.28V1h18.21v3.96zM37.803 18.1V22h-16.26V1h15.87v3.9h-11.04v4.56h9.75v3.78h-9.75v4.86h11.43zm7.5-17.1l4.35 6.36L54.003 1h5.7l-6.99 10.05L60.273 22h-5.73l-4.89-6.96-4.83 6.96h-5.61l7.5-10.74L39.692 1h5.61zM81.76 1v21H76.9v-8.61h-9.54V22H62.5V1h4.86v8.28h9.54V1h4.86zm15.282 21.36c-2.18 0-4.15-.47-5.91-1.41-1.74-.94-3.11-2.23-4.11-3.87-.98-1.66-1.47-3.52-1.47-5.58s.49-3.91 1.47-5.55c1-1.66 2.37-2.96 4.11-3.9 1.76-.94 3.73-1.41 5.91-1.41s4.14.47 5.88 1.41c1.74.94 3.11 2.24 4.11 3.9 1 1.64 1.5 3.49 1.5 5.55 0 2.06-.5 3.92-1.5 5.58-1 1.64-2.37 2.93-4.11 3.87-1.74.94-3.7 1.41-5.88 1.41zm0-4.14c1.24 0 2.36-.28 3.36-.84 1-.58 1.78-1.38 2.34-2.4.58-1.02.87-2.18.87-3.48 0-1.3-.29-2.46-.87-3.48a5.93 5.93 0 00-2.34-2.37c-1-.58-2.12-.87-3.36-.87-1.24 0-2.36.29-3.36.87-1 .56-1.79 1.35-2.37 2.37-.56 1.02-.84 2.18-.84 3.48 0 1.3.28 2.46.84 3.48a6.351 6.351 0 002.37 2.4c1 .56 2.12.84 3.36.84zm25.163 4.14c-2.14 0-4.08-.46-5.82-1.38-1.72-.94-3.08-2.23-4.08-3.87-.98-1.66-1.47-3.53-1.47-5.61 0-2.08.49-3.94 1.47-5.58 1-1.66 2.36-2.95 4.08-3.87 1.74-.94 3.69-1.41 5.85-1.41 1.82 0 3.46.32 4.92.96 1.48.64 2.72 1.56 3.72 2.76l-3.12 2.88c-1.42-1.64-3.18-2.46-5.28-2.46-1.3 0-2.46.29-3.48.87a6.078 6.078 0 00-2.4 2.37c-.56 1.02-.84 2.18-.84 3.48 0 1.3.28 2.46.84 3.48a6.288 6.288 0 002.4 2.4c1.02.56 2.18.84 3.48.84 2.1 0 3.86-.83 5.28-2.49l3.12 2.88c-1 1.22-2.24 2.15-3.72 2.79-1.48.64-3.13.96-4.95.96zM153.302 1v21h-4.86v-8.61h-9.54V22h-4.86V1h4.86v8.28h9.54V1h4.86zm19.482 16.5h-9.75l-1.86 4.5h-4.98l9.36-21h4.8l9.39 21h-5.1l-1.86-4.5zm-1.53-3.69l-3.33-8.04-3.33 8.04h6.66zM182.528 1h16.95v3.87h-12.12v4.32h5.82c2.54 0 4.47.53 5.79 1.59 1.34 1.06 2.01 2.59 2.01 4.59 0 2.1-.74 3.73-2.22 4.89-1.48 1.16-3.57 1.74-6.27 1.74h-9.96V1zm9.69 17.4c1.24 0 2.19-.24 2.85-.72.66-.5.99-1.22.99-2.16 0-1.84-1.28-2.76-3.84-2.76h-4.86v5.64h4.86z" fill="#ECEBED"/></svg>